# xmcd
#
# Track frame offsets:
#	150
#	12974
#	28208
#	42973
#	57977
#	74052
#	89670
#	104922
#	119710
#	134621
#	148870
#	162597
#	176654
#	191755
#	208236
#	224805
#	238347
#	253202
#	267417
#	282278
#	295239
#	310095
#	324949
#
# Disc length: 4524 seconds
#
# Revision: 1
# Processed by: cddbd v1.5.1PL0 Copyright (c) Steve Scherf et al.
# Submitted via: audiograbber 1.83.01
#
DISCID=9311aa17
DTITLE=Στέλιος Καζαντζίδης - Για πάντα Νο 2 (1952-1963)
DYEAR=1900
DGENRE=
TTITLE0=Μέσ'τον οντά σου
TTITLE1=Για δύο μάτια πόψε πίνω
TTITLE2=Κατέστρψες τα νειάτα μου
TTITLE3=Πέφτουν τα φύλλα απ'τα κλαριά
TTITLE4=Γεία σου Πειραιά αθάνατε
TTITLE5=Εξω απ΄΄αδικο
TTITLE6=Πολλές μανάδες κλάψανε
TTITLE7=Το μεροκάματο
TTITLE8=Δεν μπορώ πια να βαστάξω
TTITLE9=Αλλοίμονο στην μάνα μου
TTITLE10=Καλό ταξίδι
TTITLE11=Μια καινούργια κοινωνία
TTITLE12=Το πονεμένο τραγούδι
TTITLE13=Για μιά καλύτερη ζωή
TTITLE14=Στον ήλιο και στα σύννεφα
TTITLE15=Θα πάω σ'αλλες πολιτείες
TTITLE16=Τι να την κάνω την ομορφιά σου
TTITLE17=Τώρα που είσαι νέα
TTITLE18=Εχω αγιάτρευτη πληγή
TTITLE19=Φεύγουν και περνουν τα χρόνια
TTITLE20=Το ταξίδι της ζωής
TTITLE21=Εχω μάνα -εχω αδέλφια
TTITLE22=Σε αγάπησα στ'αλήθεια
EXTD=
EXTT0=
EXTT1=
EXTT2=
EXTT3=
EXTT4=
EXTT5=
EXTT6=
EXTT7=
EXTT8=
EXTT9=
EXTT10=
EXTT11=
EXTT12=
EXTT13=
EXTT14=
EXTT15=
EXTT16=
EXTT17=
EXTT18=
EXTT19=
EXTT20=
EXTT21=
EXTT22=
PLAYORDER=
